<mxfile host="Electron" agent="Mozilla/5.0 (Windows NT 10.0; Win64; x64) AppleWebKit/537.36 (KHTML, like Gecko) draw.io/26.0.4 Chrome/128.0.6613.186 Electron/32.2.5 Safari/537.36" version="26.0.4">
  <diagram id="OQYqa6YYBJ2Jv9rdrhmY" name="페이지-2">
    <mxGraphModel dx="1674" dy="844" grid="1" gridSize="10" guides="1" tooltips="1" connect="1" arrows="1" fold="1" page="1" pageScale="1" pageWidth="827" pageHeight="1169" math="0" shadow="0">
      <root>
        <mxCell id="0" />
        <mxCell id="1" parent="0" />
        <mxCell id="cNDTbIU6402F3r1NUn-p-1" value="게임 구매 FloW Chart" style="text;html=1;align=center;verticalAlign=middle;whiteSpace=wrap;rounded=0;fontSize=31;" parent="1" vertex="1">
          <mxGeometry x="240" width="320" height="60" as="geometry" />
        </mxCell>
        <mxCell id="Pk8CJZqncgyP73L83f5W-1" value="시작" style="strokeWidth=2;html=1;shape=mxgraph.flowchart.terminator;whiteSpace=wrap;" parent="1" vertex="1">
          <mxGeometry x="350" y="110" width="100" height="60" as="geometry" />
        </mxCell>
        <mxCell id="Pk8CJZqncgyP73L83f5W-2" value="끝" style="strokeWidth=2;html=1;shape=mxgraph.flowchart.terminator;whiteSpace=wrap;" parent="1" vertex="1">
          <mxGeometry x="344.5" y="2338" width="110" height="62" as="geometry" />
        </mxCell>
        <mxCell id="FiYrVJ32PqLPHqCtcOsc-2" style="edgeStyle=orthogonalEdgeStyle;rounded=0;orthogonalLoop=1;jettySize=auto;html=1;entryX=0.5;entryY=0;entryDx=0;entryDy=0;" parent="1" source="Pk8CJZqncgyP73L83f5W-3" target="FiYrVJ32PqLPHqCtcOsc-1" edge="1">
          <mxGeometry relative="1" as="geometry" />
        </mxCell>
        <mxCell id="Pk8CJZqncgyP73L83f5W-3" value="게임 구매 사이트" style="strokeWidth=2;html=1;shape=mxgraph.flowchart.document2;whiteSpace=wrap;size=0.25;" parent="1" vertex="1">
          <mxGeometry x="350" y="250" width="100" height="60" as="geometry" />
        </mxCell>
        <mxCell id="AiwUizZ7-jIVf_u3cDXe-1" style="edgeStyle=orthogonalEdgeStyle;rounded=0;orthogonalLoop=1;jettySize=auto;html=1;entryX=0.5;entryY=0;entryDx=0;entryDy=0;entryPerimeter=0;" parent="1" source="Pk8CJZqncgyP73L83f5W-1" target="Pk8CJZqncgyP73L83f5W-3" edge="1">
          <mxGeometry relative="1" as="geometry" />
        </mxCell>
        <mxCell id="AiwUizZ7-jIVf_u3cDXe-2" value="구매처리" style="rounded=0;whiteSpace=wrap;html=1;" parent="1" vertex="1">
          <mxGeometry x="340" y="1100" width="120" height="60" as="geometry" />
        </mxCell>
        <mxCell id="FiYrVJ32PqLPHqCtcOsc-9" style="edgeStyle=orthogonalEdgeStyle;rounded=0;orthogonalLoop=1;jettySize=auto;html=1;" parent="1" source="AiwUizZ7-jIVf_u3cDXe-3" target="FiYrVJ32PqLPHqCtcOsc-8" edge="1">
          <mxGeometry relative="1" as="geometry" />
        </mxCell>
        <mxCell id="AiwUizZ7-jIVf_u3cDXe-3" value="인증처리" style="rounded=0;whiteSpace=wrap;html=1;" parent="1" vertex="1">
          <mxGeometry x="340" y="700" width="120" height="60" as="geometry" />
        </mxCell>
        <mxCell id="FiYrVJ32PqLPHqCtcOsc-5" style="edgeStyle=orthogonalEdgeStyle;rounded=0;orthogonalLoop=1;jettySize=auto;html=1;entryX=0.5;entryY=0;entryDx=0;entryDy=0;" parent="1" source="FiYrVJ32PqLPHqCtcOsc-1" target="FiYrVJ32PqLPHqCtcOsc-4" edge="1">
          <mxGeometry relative="1" as="geometry" />
        </mxCell>
        <mxCell id="FiYrVJ32PqLPHqCtcOsc-1" value="구매요청" style="shape=parallelogram;html=1;strokeWidth=2;perimeter=parallelogramPerimeter;whiteSpace=wrap;rounded=1;arcSize=12;size=0.23;" parent="1" vertex="1">
          <mxGeometry x="350" y="400" width="100" height="60" as="geometry" />
        </mxCell>
        <mxCell id="FiYrVJ32PqLPHqCtcOsc-6" style="edgeStyle=orthogonalEdgeStyle;rounded=0;orthogonalLoop=1;jettySize=auto;html=1;entryX=0.5;entryY=0;entryDx=0;entryDy=0;" parent="1" source="FiYrVJ32PqLPHqCtcOsc-4" target="AiwUizZ7-jIVf_u3cDXe-3" edge="1">
          <mxGeometry relative="1" as="geometry" />
        </mxCell>
        <mxCell id="FiYrVJ32PqLPHqCtcOsc-4" value="인증요청" style="shape=parallelogram;html=1;strokeWidth=2;perimeter=parallelogramPerimeter;whiteSpace=wrap;rounded=1;arcSize=12;size=0.23;" parent="1" vertex="1">
          <mxGeometry x="350" y="525" width="100" height="60" as="geometry" />
        </mxCell>
        <mxCell id="FiYrVJ32PqLPHqCtcOsc-11" value="" style="edgeStyle=orthogonalEdgeStyle;rounded=0;orthogonalLoop=1;jettySize=auto;html=1;entryX=0.5;entryY=0;entryDx=0;entryDy=0;entryPerimeter=0;" parent="1" source="FiYrVJ32PqLPHqCtcOsc-8" target="FiYrVJ32PqLPHqCtcOsc-12" edge="1">
          <mxGeometry relative="1" as="geometry">
            <mxPoint x="680" y="870" as="targetPoint" />
          </mxGeometry>
        </mxCell>
        <mxCell id="EbHETCpTQjaNzfUZt4pz-2" style="edgeStyle=orthogonalEdgeStyle;rounded=0;orthogonalLoop=1;jettySize=auto;html=1;entryX=0;entryY=0.5;entryDx=0;entryDy=0;" parent="1" source="FiYrVJ32PqLPHqCtcOsc-8" target="EbHETCpTQjaNzfUZt4pz-1" edge="1">
          <mxGeometry relative="1" as="geometry" />
        </mxCell>
        <mxCell id="FiYrVJ32PqLPHqCtcOsc-8" value="이메일이&lt;div&gt;맞는지?&lt;/div&gt;" style="strokeWidth=2;html=1;shape=mxgraph.flowchart.decision;whiteSpace=wrap;" parent="1" vertex="1">
          <mxGeometry x="630" y="680" width="100" height="100" as="geometry" />
        </mxCell>
        <mxCell id="QhY8YhAJAeIXsR_oUZb4-2" style="edgeStyle=orthogonalEdgeStyle;rounded=0;orthogonalLoop=1;jettySize=auto;html=1;entryX=0;entryY=0.5;entryDx=0;entryDy=0;" parent="1" source="FiYrVJ32PqLPHqCtcOsc-12" target="QhY8YhAJAeIXsR_oUZb4-1" edge="1">
          <mxGeometry relative="1" as="geometry" />
        </mxCell>
        <mxCell id="_E5i1H41dmrvWntu1x-X-1" style="edgeStyle=orthogonalEdgeStyle;rounded=0;orthogonalLoop=1;jettySize=auto;html=1;entryX=1;entryY=0.5;entryDx=0;entryDy=0;" parent="1" source="FiYrVJ32PqLPHqCtcOsc-12" target="AiwUizZ7-jIVf_u3cDXe-2" edge="1">
          <mxGeometry relative="1" as="geometry">
            <mxPoint x="680" y="1130" as="targetPoint" />
            <Array as="points">
              <mxPoint x="680" y="1130" />
            </Array>
          </mxGeometry>
        </mxCell>
        <mxCell id="FiYrVJ32PqLPHqCtcOsc-12" value="인증번호가&lt;div&gt;맞는지?&lt;/div&gt;" style="strokeWidth=2;html=1;shape=mxgraph.flowchart.decision;whiteSpace=wrap;" parent="1" vertex="1">
          <mxGeometry x="630" y="880" width="100" height="100" as="geometry" />
        </mxCell>
        <mxCell id="FiYrVJ32PqLPHqCtcOsc-13" value="YES" style="text;html=1;align=center;verticalAlign=middle;resizable=0;points=[];autosize=1;strokeColor=none;fillColor=none;" parent="1" vertex="1">
          <mxGeometry x="680" y="808" width="50" height="30" as="geometry" />
        </mxCell>
        <mxCell id="EbHETCpTQjaNzfUZt4pz-1" value="이메일 입력&amp;nbsp;&lt;div&gt;페이지로 이동처리&lt;/div&gt;" style="rounded=0;whiteSpace=wrap;html=1;" parent="1" vertex="1">
          <mxGeometry x="930" y="700" width="120" height="60" as="geometry" />
        </mxCell>
        <mxCell id="EbHETCpTQjaNzfUZt4pz-3" value="NO" style="text;html=1;align=center;verticalAlign=middle;resizable=0;points=[];autosize=1;strokeColor=none;fillColor=none;" parent="1" vertex="1">
          <mxGeometry x="810" y="700" width="40" height="30" as="geometry" />
        </mxCell>
        <mxCell id="3G1GMHyj9OfwFa_Edzsb-1" value="이메일 페이지" style="strokeWidth=2;html=1;shape=mxgraph.flowchart.document2;whiteSpace=wrap;size=0.25;" parent="1" vertex="1">
          <mxGeometry x="1170" y="700" width="100" height="60" as="geometry" />
        </mxCell>
        <mxCell id="3G1GMHyj9OfwFa_Edzsb-2" style="edgeStyle=orthogonalEdgeStyle;rounded=0;orthogonalLoop=1;jettySize=auto;html=1;entryX=0;entryY=0.5;entryDx=0;entryDy=0;entryPerimeter=0;" parent="1" source="EbHETCpTQjaNzfUZt4pz-1" target="3G1GMHyj9OfwFa_Edzsb-1" edge="1">
          <mxGeometry relative="1" as="geometry" />
        </mxCell>
        <mxCell id="TB0crFvjZGrKtS5ckATU-1" value="&lt;p style=&quot;margin: 4px 0px 0px;&quot;&gt;&lt;b&gt;MESSAGE&lt;/b&gt;&lt;/p&gt;&lt;hr style=&quot;border-style:solid;&quot; size=&quot;1&quot;&gt;&lt;div style=&quot;height: 2px;&quot;&gt;이메일 형식이 맞지 않습니다.&lt;/div&gt;" style="verticalAlign=middle;align=center;overflow=fill;html=1;whiteSpace=wrap;" parent="1" vertex="1">
          <mxGeometry x="735" y="630" width="170" height="50" as="geometry" />
        </mxCell>
        <mxCell id="QhY8YhAJAeIXsR_oUZb4-1" value="인증번호 입력&lt;div&gt;폼으로 이동처리&lt;/div&gt;" style="rounded=0;whiteSpace=wrap;html=1;" parent="1" vertex="1">
          <mxGeometry x="960" y="900" width="120" height="60" as="geometry" />
        </mxCell>
        <mxCell id="QhY8YhAJAeIXsR_oUZb4-3" value="NO" style="text;html=1;align=center;verticalAlign=middle;resizable=0;points=[];autosize=1;strokeColor=none;fillColor=none;" parent="1" vertex="1">
          <mxGeometry x="820" y="900" width="40" height="30" as="geometry" />
        </mxCell>
        <mxCell id="QhY8YhAJAeIXsR_oUZb4-4" value="인증번호 입력&amp;nbsp;&lt;div&gt;폼&lt;/div&gt;" style="strokeWidth=2;html=1;shape=mxgraph.flowchart.document2;whiteSpace=wrap;size=0.25;" parent="1" vertex="1">
          <mxGeometry x="1180" y="900" width="100" height="60" as="geometry" />
        </mxCell>
        <mxCell id="QhY8YhAJAeIXsR_oUZb4-5" style="edgeStyle=orthogonalEdgeStyle;rounded=0;orthogonalLoop=1;jettySize=auto;html=1;entryX=0;entryY=0.5;entryDx=0;entryDy=0;entryPerimeter=0;" parent="1" source="QhY8YhAJAeIXsR_oUZb4-1" target="QhY8YhAJAeIXsR_oUZb4-4" edge="1">
          <mxGeometry relative="1" as="geometry" />
        </mxCell>
        <mxCell id="KM9yovIH0FBw-Xcc6PbV-3" style="edgeStyle=orthogonalEdgeStyle;rounded=0;orthogonalLoop=1;jettySize=auto;html=1;" parent="1" source="_E5i1H41dmrvWntu1x-X-2" target="KM9yovIH0FBw-Xcc6PbV-2" edge="1">
          <mxGeometry relative="1" as="geometry" />
        </mxCell>
        <mxCell id="_E5i1H41dmrvWntu1x-X-2" value="결제방식을&lt;div&gt;제대로&amp;nbsp;&lt;/div&gt;&lt;div&gt;선택했는가?&lt;/div&gt;" style="strokeWidth=2;html=1;shape=mxgraph.flowchart.decision;whiteSpace=wrap;" parent="1" vertex="1">
          <mxGeometry x="340" y="1260" width="120" height="120" as="geometry" />
        </mxCell>
        <mxCell id="_E5i1H41dmrvWntu1x-X-3" style="edgeStyle=orthogonalEdgeStyle;rounded=0;orthogonalLoop=1;jettySize=auto;html=1;entryX=0.5;entryY=0;entryDx=0;entryDy=0;entryPerimeter=0;" parent="1" source="AiwUizZ7-jIVf_u3cDXe-2" target="_E5i1H41dmrvWntu1x-X-2" edge="1">
          <mxGeometry relative="1" as="geometry" />
        </mxCell>
        <mxCell id="e5CFyw-AqBlruD_aFaY4-4" style="edgeStyle=orthogonalEdgeStyle;rounded=0;orthogonalLoop=1;jettySize=auto;html=1;exitX=0.518;exitY=0.846;exitDx=0;exitDy=0;exitPerimeter=0;entryX=0.518;entryY=-0.017;entryDx=0;entryDy=0;entryPerimeter=0;" parent="1" source="SevnIoSE6rTBedpAABen-1" target="e5CFyw-AqBlruD_aFaY4-3" edge="1">
          <mxGeometry relative="1" as="geometry">
            <mxPoint x="400" y="1650" as="targetPoint" />
          </mxGeometry>
        </mxCell>
        <mxCell id="SevnIoSE6rTBedpAABen-1" value="결제 완료 창" style="strokeWidth=2;html=1;shape=mxgraph.flowchart.document2;whiteSpace=wrap;size=0.25;" parent="1" vertex="1">
          <mxGeometry x="350" y="1490" width="100" height="60" as="geometry" />
        </mxCell>
        <mxCell id="SevnIoSE6rTBedpAABen-2" style="edgeStyle=orthogonalEdgeStyle;rounded=0;orthogonalLoop=1;jettySize=auto;html=1;entryX=0.5;entryY=0;entryDx=0;entryDy=0;entryPerimeter=0;" parent="1" source="_E5i1H41dmrvWntu1x-X-2" target="SevnIoSE6rTBedpAABen-1" edge="1">
          <mxGeometry relative="1" as="geometry" />
        </mxCell>
        <mxCell id="KM9yovIH0FBw-Xcc6PbV-1" value="YES" style="text;html=1;align=center;verticalAlign=middle;resizable=0;points=[];autosize=1;strokeColor=none;fillColor=none;" parent="1" vertex="1">
          <mxGeometry x="389" y="1408" width="50" height="30" as="geometry" />
        </mxCell>
        <mxCell id="KM9yovIH0FBw-Xcc6PbV-2" value="결제 선택&lt;div&gt;페이지로 이동처리&lt;/div&gt;" style="rounded=0;whiteSpace=wrap;html=1;" parent="1" vertex="1">
          <mxGeometry x="710" y="1290" width="120" height="60" as="geometry" />
        </mxCell>
        <mxCell id="KM9yovIH0FBw-Xcc6PbV-4" value="NO" style="text;html=1;align=center;verticalAlign=middle;resizable=0;points=[];autosize=1;strokeColor=none;fillColor=none;" parent="1" vertex="1">
          <mxGeometry x="560" y="1290" width="40" height="30" as="geometry" />
        </mxCell>
        <mxCell id="KM9yovIH0FBw-Xcc6PbV-5" value="결제선택 페이지" style="strokeWidth=2;html=1;shape=mxgraph.flowchart.document2;whiteSpace=wrap;size=0.25;" parent="1" vertex="1">
          <mxGeometry x="990" y="1290" width="100" height="60" as="geometry" />
        </mxCell>
        <mxCell id="KM9yovIH0FBw-Xcc6PbV-6" style="edgeStyle=orthogonalEdgeStyle;rounded=0;orthogonalLoop=1;jettySize=auto;html=1;entryX=0;entryY=0.5;entryDx=0;entryDy=0;entryPerimeter=0;" parent="1" source="KM9yovIH0FBw-Xcc6PbV-2" target="KM9yovIH0FBw-Xcc6PbV-5" edge="1">
          <mxGeometry relative="1" as="geometry" />
        </mxCell>
        <mxCell id="KM9yovIH0FBw-Xcc6PbV-7" value="&lt;p style=&quot;margin: 4px 0px 0px;&quot;&gt;&lt;b&gt;MESSAGE&lt;/b&gt;&lt;/p&gt;&lt;hr style=&quot;border-style:solid;&quot; size=&quot;1&quot;&gt;&lt;div style=&quot;height: 2px;&quot;&gt;이메일 확인 후 코드를 입력해주세요&lt;/div&gt;" style="verticalAlign=middle;align=center;overflow=fill;html=1;whiteSpace=wrap;" parent="1" vertex="1">
          <mxGeometry x="740" y="838" width="200" height="52" as="geometry" />
        </mxCell>
        <mxCell id="KM9yovIH0FBw-Xcc6PbV-8" value="&lt;p style=&quot;margin: 4px 0px 0px;&quot;&gt;&lt;b&gt;MESSAGE&lt;/b&gt;&lt;/p&gt;&lt;hr style=&quot;border-style:solid;&quot; size=&quot;1&quot;&gt;&lt;div style=&quot;height: 2px;&quot;&gt;결제방식을 선택해주세요.&lt;/div&gt;" style="verticalAlign=middle;align=center;overflow=fill;html=1;whiteSpace=wrap;" parent="1" vertex="1">
          <mxGeometry x="480" y="1230" width="200" height="52" as="geometry" />
        </mxCell>
        <mxCell id="e5CFyw-AqBlruD_aFaY4-1" value="인증번호 입력&amp;nbsp;&lt;div&gt;폼&lt;/div&gt;" style="strokeWidth=2;html=1;shape=mxgraph.flowchart.document2;whiteSpace=wrap;size=0.25;" parent="1" vertex="1">
          <mxGeometry x="1170" y="1290" width="100" height="60" as="geometry" />
        </mxCell>
        <mxCell id="e5CFyw-AqBlruD_aFaY4-2" value="&lt;p style=&quot;margin: 4px 0px 0px;&quot;&gt;&lt;b&gt;MESSAGE&lt;/b&gt;&lt;/p&gt;&lt;hr style=&quot;border-style:solid;&quot; size=&quot;1&quot;&gt;&lt;div style=&quot;height: 2px;&quot;&gt;결제가 완료되었습니다.&lt;/div&gt;" style="verticalAlign=middle;align=center;overflow=fill;html=1;whiteSpace=wrap;" parent="1" vertex="1">
          <mxGeometry x="430" y="1570" width="150" height="52" as="geometry" />
        </mxCell>
        <mxCell id="e5CFyw-AqBlruD_aFaY4-3" value="이메일로&amp;nbsp;&lt;span style=&quot;background-color: transparent; color: light-dark(rgb(0, 0, 0), rgb(255, 255, 255));&quot;&gt;게임키&lt;/span&gt;&lt;div&gt;&lt;span style=&quot;background-color: transparent; color: light-dark(rgb(0, 0, 0), rgb(255, 255, 255));&quot;&gt;발송 요청&lt;/span&gt;&lt;/div&gt;" style="shape=parallelogram;html=1;strokeWidth=2;perimeter=parallelogramPerimeter;whiteSpace=wrap;rounded=1;arcSize=12;size=0.23;" parent="1" vertex="1">
          <mxGeometry x="330" y="1660" width="140" height="70" as="geometry" />
        </mxCell>
        <mxCell id="e5CFyw-AqBlruD_aFaY4-11" style="edgeStyle=orthogonalEdgeStyle;rounded=0;orthogonalLoop=1;jettySize=auto;html=1;entryX=0.5;entryY=0;entryDx=0;entryDy=0;" parent="1" source="e5CFyw-AqBlruD_aFaY4-6" target="e5CFyw-AqBlruD_aFaY4-10" edge="1">
          <mxGeometry relative="1" as="geometry" />
        </mxCell>
        <mxCell id="e5CFyw-AqBlruD_aFaY4-6" value="발송 처리" style="rounded=0;whiteSpace=wrap;html=1;" parent="1" vertex="1">
          <mxGeometry x="340" y="1830" width="120" height="60" as="geometry" />
        </mxCell>
        <mxCell id="e5CFyw-AqBlruD_aFaY4-8" value="" style="endArrow=classic;html=1;rounded=0;exitX=0.5;exitY=0.971;exitDx=0;exitDy=0;exitPerimeter=0;entryX=0.5;entryY=0;entryDx=0;entryDy=0;" parent="1" source="e5CFyw-AqBlruD_aFaY4-3" target="e5CFyw-AqBlruD_aFaY4-6" edge="1">
          <mxGeometry width="50" height="50" relative="1" as="geometry">
            <mxPoint x="480" y="1730" as="sourcePoint" />
            <mxPoint x="530" y="1680" as="targetPoint" />
          </mxGeometry>
        </mxCell>
        <mxCell id="e5CFyw-AqBlruD_aFaY4-10" value="메세지 확인" style="shape=parallelogram;html=1;strokeWidth=2;perimeter=parallelogramPerimeter;whiteSpace=wrap;rounded=1;arcSize=12;size=0.23;" parent="1" vertex="1">
          <mxGeometry x="339" y="2020" width="121" height="60" as="geometry" />
        </mxCell>
        <mxCell id="e5CFyw-AqBlruD_aFaY4-12" value="&lt;p style=&quot;margin: 4px 0px 0px;&quot;&gt;&lt;b&gt;MESSAGE&lt;/b&gt;&lt;/p&gt;&lt;hr style=&quot;border-style:solid;&quot; size=&quot;1&quot;&gt;&lt;div style=&quot;height: 2px;&quot;&gt;게임코드가 발송되었습니다.&lt;/div&gt;" style="verticalAlign=middle;align=center;overflow=fill;html=1;whiteSpace=wrap;" parent="1" vertex="1">
          <mxGeometry x="430" y="1930" width="170" height="50" as="geometry" />
        </mxCell>
        <mxCell id="e5CFyw-AqBlruD_aFaY4-16" style="edgeStyle=orthogonalEdgeStyle;rounded=0;orthogonalLoop=1;jettySize=auto;html=1;entryX=0.5;entryY=0;entryDx=0;entryDy=0;entryPerimeter=0;exitX=0.505;exitY=0.88;exitDx=0;exitDy=0;exitPerimeter=0;" parent="1" edge="1">
          <mxGeometry relative="1" as="geometry">
            <mxPoint x="399.7" y="2338.2" as="targetPoint" />
            <mxPoint x="400.24999999999994" y="2243" as="sourcePoint" />
          </mxGeometry>
        </mxCell>
        <mxCell id="e5CFyw-AqBlruD_aFaY4-13" value="메인페이지로 이동" style="strokeWidth=2;html=1;shape=mxgraph.flowchart.document2;whiteSpace=wrap;size=0.25;" parent="1" vertex="1">
          <mxGeometry x="350" y="2190" width="110" height="60" as="geometry" />
        </mxCell>
        <mxCell id="e5CFyw-AqBlruD_aFaY4-14" style="edgeStyle=orthogonalEdgeStyle;rounded=0;orthogonalLoop=1;jettySize=auto;html=1;entryX=0.447;entryY=-0.008;entryDx=0;entryDy=0;entryPerimeter=0;" parent="1" source="e5CFyw-AqBlruD_aFaY4-10" target="e5CFyw-AqBlruD_aFaY4-13" edge="1">
          <mxGeometry relative="1" as="geometry" />
        </mxCell>
      </root>
    </mxGraphModel>
  </diagram>
</mxfile>
